<?xml version="1.0" encoding="UTF-8" ?>
<!DOCTYPE svg PUBLIC "-//W3C//DTD SVG 1.1//EN" "http://www.w3.org/Graphics/SVG/1.1/DTD/svg11.dtd">
<svg width="400pt" height="400pt" viewBox="0 0 400 400" version="1.1" xmlns="http://www.w3.org/2000/svg">
<g id="#000a00ff">
<path fill="#000a00" opacity="1.00" d=" M 175.10 99.63 C 178.99 99.38 182.89 99.12 186.79 99.16 C 187.01 101.10 187.19 103.03 187.35 104.97 C 185.33 103.42 183.18 102.03 180.77 101.19 C 180.43 104.15 180.44 107.13 180.55 110.10 C 182.09 109.39 183.63 108.68 185.22 108.07 C 185.01 110.32 184.80 112.57 184.52 114.82 C 183.20 114.10 181.89 113.38 180.58 112.67 C 180.53 115.84 180.52 119.01 180.56 122.18 C 181.42 122.19 183.14 122.21 184.00 122.22 C 185.11 120.67 186.23 119.13 187.38 117.61 C 187.86 119.82 188.23 122.06 188.52 124.30 C 184.04 124.63 179.54 124.59 175.06 124.28 C 176.47 119.72 175.48 115.00 175.35 110.35 C 175.87 106.79 175.79 103.17 175.10 99.63 Z" />
<path fill="#000a00" opacity="1.00" d=" M 190.33 99.69 C 192.45 99.62 194.56 99.60 196.68 99.61 C 196.30 102.90 197.20 106.11 198.81 108.97 C 201.43 105.13 198.58 97.13 205.67 99.70 C 204.40 102.39 203.04 105.07 202.19 107.94 C 200.67 113.45 199.61 119.16 200.86 124.85 C 198.81 124.90 196.77 124.93 194.72 124.95 C 195.27 121.53 195.57 118.08 195.87 114.64 C 195.45 114.14 194.60 113.13 194.18 112.63 C 193.86 108.08 192.14 103.82 190.33 99.69 Z" />
<path fill="#000a00" opacity="1.00" d=" M 207.96 99.62 C 211.75 99.44 215.54 99.19 219.33 98.91 C 219.69 100.92 219.94 102.96 220.10 105.00 C 218.15 103.28 216.06 101.60 213.32 101.66 C 213.25 104.42 213.26 107.19 213.33 109.95 C 214.96 109.34 216.59 108.70 218.27 108.19 C 217.98 110.40 217.67 112.60 217.29 114.80 C 215.97 114.09 214.65 113.38 213.32 112.69 C 213.29 116.03 213.41 119.38 213.70 122.72 C 216.73 122.34 218.59 119.94 220.48 117.82 C 220.91 119.84 221.53 121.90 221.07 123.98 C 216.83 125.19 212.34 124.38 208.01 124.25 C 209.05 120.59 208.84 116.77 208.02 113.08 C 208.47 108.61 209.10 104.06 207.96 99.62 Z" />
<path fill="#000a00" opacity="1.00" d=" M 224.94 100.90 C 227.30 98.08 231.24 99.73 234.30 100.00 C 234.09 102.11 233.84 104.22 233.54 106.32 C 232.18 104.65 231.09 102.63 229.11 101.60 C 225.09 105.61 230.65 109.74 234.17 111.43 C 235.33 114.90 237.54 119.30 234.44 122.43 C 231.82 125.88 227.19 124.59 223.53 124.34 C 223.54 121.90 223.64 119.45 223.88 117.02 C 225.62 119.09 227.23 121.28 228.99 123.35 C 230.26 121.85 231.51 120.35 232.75 118.84 C 230.42 115.55 226.93 113.33 224.70 109.98 C 223.45 107.16 222.55 103.40 224.94 100.90 Z" />
<path fill="#000a00" opacity="1.00" d=" M 161.26 111.17 C 163.07 109.95 164.87 108.72 166.68 107.50 C 168.33 108.71 169.98 109.92 171.64 111.12 C 170.13 112.71 168.41 114.09 166.74 115.50 C 164.86 114.13 162.93 112.80 161.26 111.17 Z" />
<path fill="#000a00" opacity="1.00" d=" M 241.79 108.91 C 242.51 108.43 243.24 107.96 243.98 107.49 C 245.65 108.71 247.32 109.94 248.99 111.17 C 247.47 112.73 245.74 114.07 244.04 115.43 C 242.15 114.04 240.25 112.66 238.37 111.26 C 239.50 110.47 240.64 109.69 241.79 108.91 Z" />
<path fill="#000a00" opacity="1.00" d=" M 156.07 117.68 C 166.11 115.58 171.57 126.25 179.57 129.55 C 196.40 126.79 213.77 126.84 230.59 129.59 C 238.58 126.25 244.11 115.61 254.08 117.72 C 251.69 123.96 248.32 129.76 245.34 135.71 C 243.46 144.80 249.48 152.67 253.58 160.20 C 255.46 166.65 254.58 173.64 253.38 180.15 C 255.34 182.08 256.57 184.54 257.47 187.11 C 263.02 189.26 260.12 194.78 259.80 199.13 C 260.82 210.47 252.63 219.74 246.16 228.14 C 235.44 236.17 224.29 244.25 211.29 248.20 C 205.94 249.27 205.87 255.56 204.83 259.83 C 203.97 260.59 203.11 261.35 202.25 262.12 C 203.62 264.73 204.92 267.39 206.22 270.05 C 204.81 270.04 203.41 270.03 202.01 270.03 C 200.59 267.33 199.10 264.66 197.32 262.19 C 197.10 264.84 196.98 267.49 196.93 270.15 C 195.36 270.11 193.79 270.08 192.23 270.05 C 192.46 264.37 192.34 258.68 191.72 253.04 C 196.33 253.16 200.91 253.89 205.27 255.43 C 203.67 247.73 195.17 247.52 189.39 244.56 C 180.31 240.06 171.88 234.28 163.88 228.14 C 157.48 219.69 149.43 210.44 150.40 199.10 C 150.27 196.06 149.43 193.11 148.86 190.14 C 149.59 189.60 150.31 189.06 151.03 188.51 C 151.39 188.22 152.10 187.64 152.46 187.35 C 153.58 184.79 154.74 182.21 156.76 180.21 C 155.75 173.97 154.74 167.40 156.28 161.16 C 159.86 152.86 167.69 144.96 164.66 135.22 C 164.91 135.02 165.16 134.84 165.41 134.65 C 160.76 130.09 159.03 123.37 156.07 117.68 M 237.24 155.94 C 237.97 157.06 238.68 158.19 239.38 159.33 C 237.89 159.38 236.39 159.40 234.91 159.40 C 236.35 159.90 237.78 160.40 239.22 160.94 C 237.79 161.41 236.37 161.85 234.94 162.30 C 236.22 162.48 237.51 162.65 238.80 162.83 C 239.22 161.06 239.58 159.28 239.88 157.48 C 240.44 157.82 241.57 158.48 242.13 158.81 C 242.09 158.52 242.01 157.95 241.97 157.66 C 240.29 157.39 238.73 156.72 237.24 155.94 M 169.62 157.60 C 169.72 158.41 169.92 160.03 170.02 160.84 C 169.43 160.65 168.26 160.27 167.67 160.07 C 167.71 163.87 168.52 167.57 169.26 171.27 C 167.98 171.29 166.70 171.32 165.42 171.36 C 166.14 169.06 166.33 166.66 166.01 164.27 C 162.50 168.64 163.34 175.37 166.11 179.92 C 170.88 185.56 177.59 189.02 183.24 193.66 C 183.61 193.39 183.99 193.12 184.37 192.86 C 188.46 196.48 193.28 199.95 198.89 200.41 L 198.77 200.61 C 202.52 201.04 206.29 201.12 210.05 200.91 C 211.71 201.04 212.77 199.83 213.81 198.75 C 214.10 199.08 214.67 199.73 214.96 200.06 C 215.13 198.98 215.31 197.90 215.49 196.82 C 215.66 197.41 216.01 198.58 216.18 199.17 C 218.75 197.29 221.59 195.83 224.44 194.43 C 223.81 193.08 223.19 191.73 222.58 190.37 C 223.65 190.43 224.73 190.50 225.81 190.55 C 225.90 191.32 226.09 192.85 226.18 193.61 C 232.25 189.75 238.18 185.52 243.46 180.62 C 246.11 176.32 248.01 169.12 244.01 165.19 C 245.62 169.14 243.87 176.49 238.51 172.80 C 239.49 172.80 240.46 172.80 241.45 172.81 C 241.07 168.55 242.24 164.37 242.05 160.12 C 238.86 163.29 240.63 168.39 237.86 171.86 C 236.90 170.67 235.60 170.46 234.21 170.83 C 233.76 172.31 233.31 173.78 232.84 175.25 C 234.06 174.91 235.29 174.58 236.52 174.27 C 234.95 177.33 231.42 175.90 228.76 175.90 C 229.31 177.14 229.89 178.37 230.46 179.61 C 229.34 179.86 228.23 180.11 227.12 180.38 C 226.47 179.55 225.82 178.72 225.17 177.91 C 223.27 177.42 221.43 176.74 219.64 175.95 C 224.89 175.92 229.70 174.15 233.66 170.71 C 233.30 170.00 232.60 168.60 232.25 167.90 C 230.61 169.72 228.81 171.39 226.74 172.70 C 230.04 169.76 232.75 161.45 225.96 161.48 C 226.54 164.62 227.17 169.94 222.74 170.42 C 218.74 170.67 218.96 165.89 218.67 163.17 C 214.58 164.32 215.97 168.27 216.35 171.40 C 218.05 174.15 219.77 176.90 221.93 179.33 C 222.55 180.82 223.27 182.26 224.05 183.68 C 223.11 183.39 222.17 183.11 221.23 182.83 C 221.06 184.05 220.89 185.26 220.73 186.49 C 220.17 186.71 219.05 187.15 218.49 187.37 C 218.27 187.90 217.82 188.97 217.59 189.50 C 216.97 189.28 216.35 189.06 215.73 188.85 C 214.37 190.95 212.79 192.91 211.16 194.81 C 210.70 193.54 210.24 192.26 209.78 191.01 C 207.74 193.13 209.14 195.25 210.67 197.08 C 210.62 197.44 210.50 198.15 210.44 198.51 C 210.04 197.98 209.23 196.93 208.83 196.41 C 207.18 196.54 205.54 196.65 203.90 196.87 C 202.40 193.94 200.78 191.07 198.92 188.35 C 199.01 190.20 199.14 192.06 199.23 193.92 C 196.80 192.42 195.68 189.79 194.78 187.21 C 194.05 187.73 193.32 188.26 192.60 188.79 C 192.38 187.64 192.16 186.48 191.95 185.34 C 191.03 185.87 190.11 186.40 189.19 186.93 C 189.47 185.30 189.77 183.67 190.06 182.04 C 189.12 182.36 188.17 182.69 187.23 183.02 C 188.20 181.11 189.28 179.23 189.96 177.19 C 190.68 175.78 191.36 174.35 192.08 172.94 C 191.22 173.05 189.50 173.27 188.63 173.38 C 192.00 171.99 194.09 169.17 194.84 165.67 C 193.95 164.99 193.05 164.31 192.17 163.63 C 192.43 166.73 190.85 170.88 187.02 170.22 C 182.55 169.97 182.80 164.35 184.37 161.41 C 176.27 162.57 181.58 172.27 186.91 173.65 C 183.24 173.44 180.23 171.34 178.10 168.46 C 178.89 165.81 179.15 163.04 179.20 160.28 C 177.67 161.51 176.17 162.79 174.69 164.09 C 173.45 164.03 172.21 163.97 170.97 163.92 C 172.45 163.23 173.93 162.56 175.41 161.88 C 174.87 161.56 173.79 160.94 173.25 160.62 C 173.92 160.13 174.58 159.64 175.25 159.15 C 173.37 158.64 171.49 158.13 169.62 157.60 M 231.13 160.27 C 231.43 162.75 231.91 165.20 232.32 167.66 C 232.83 166.64 233.34 165.63 233.86 164.62 C 232.99 163.14 232.11 161.67 231.13 160.27 M 157.68 162.07 C 157.35 164.70 157.52 167.37 158.43 169.88 C 159.44 167.45 160.61 163.68 157.68 162.07 M 251.41 170.77 C 252.44 167.94 252.97 164.93 252.39 161.94 C 249.34 164.08 251.26 167.84 251.41 170.77 M 158.43 170.98 C 157.58 175.83 159.19 181.47 161.89 185.46 C 160.89 180.62 160.33 175.57 158.43 170.98 M 248.14 185.34 C 251.32 181.75 252.59 175.38 251.85 170.46 C 250.14 175.28 249.61 180.43 248.14 185.34 M 159.21 187.24 C 163.58 191.38 167.45 200.13 174.85 196.87 C 174.10 195.36 173.35 193.87 172.58 192.38 C 171.79 192.91 170.99 193.43 170.20 193.96 C 171.00 194.98 171.80 196.02 172.56 197.09 C 169.22 196.33 166.24 194.55 164.26 191.73 C 165.00 191.66 166.49 191.54 167.24 191.48 C 166.79 190.69 166.35 189.90 165.91 189.11 C 165.14 189.23 163.59 189.48 162.81 189.61 C 161.62 188.79 160.42 188.00 159.21 187.24 M 247.05 189.60 C 246.33 189.46 244.88 189.17 244.15 189.03 C 243.73 189.87 243.31 190.71 242.88 191.56 C 243.72 191.55 245.39 191.53 246.22 191.52 C 244.21 194.37 241.34 196.41 237.79 196.75 C 238.31 196.09 239.37 194.78 239.89 194.12 C 239.39 193.71 238.39 192.90 237.90 192.49 C 236.95 193.90 236.03 195.32 235.13 196.75 C 237.96 198.29 240.85 197.25 243.55 196.04 C 245.98 193.05 248.32 189.99 250.95 187.17 C 249.64 187.96 248.34 188.77 247.05 189.60 M 163.18 196.92 C 163.14 197.67 163.05 199.16 163.01 199.91 C 164.38 199.41 165.75 198.90 167.13 198.39 C 165.81 197.89 164.50 197.40 163.18 196.92 M 167.47 198.64 C 168.00 199.58 168.53 200.51 169.07 201.45 C 169.55 201.36 170.52 201.17 171.00 201.08 C 171.66 201.73 172.32 202.39 172.98 203.05 C 173.11 202.24 173.36 200.64 173.48 199.83 C 171.49 199.40 169.48 199.00 167.47 198.64 M 179.59 198.95 C 180.55 200.81 178.60 201.44 177.21 201.88 C 177.21 202.12 177.20 202.60 177.20 202.84 C 178.18 202.44 179.15 202.04 180.12 201.64 C 180.31 203.23 180.52 204.81 180.76 206.40 C 181.03 204.07 181.08 201.72 181.46 199.41 C 180.99 199.29 180.06 199.07 179.59 198.95 M 236.79 199.77 C 236.83 200.63 236.92 202.36 236.96 203.23 C 238.10 200.74 240.60 200.26 243.06 200.01 C 241.26 198.34 238.85 199.56 236.79 199.77 M 219.16 206.49 C 218.81 206.96 218.12 207.90 217.77 208.36 C 220.82 207.62 223.88 206.77 226.63 205.24 C 224.13 205.60 221.66 206.16 219.16 206.49 M 169.15 207.97 C 169.13 209.30 169.11 210.64 169.09 211.98 C 170.84 213.37 172.52 214.85 174.26 216.26 C 173.48 213.00 171.12 210.55 169.15 207.97 M 184.09 209.68 C 183.21 209.49 181.47 209.11 180.60 208.92 C 183.49 210.60 184.97 213.44 185.54 216.65 C 187.55 218.96 190.28 220.60 192.17 223.07 C 188.73 221.82 185.89 219.40 182.54 217.95 C 182.90 219.32 183.61 220.54 184.56 221.58 C 184.86 222.80 185.15 224.02 185.44 225.26 C 185.65 224.01 185.87 222.77 186.10 221.53 C 187.85 223.47 189.52 225.48 190.96 227.67 C 191.61 227.36 192.27 227.06 192.92 226.76 C 197.67 228.40 200.58 232.62 204.89 234.94 C 209.73 233.07 214.27 224.94 219.53 228.48 C 220.18 226.02 221.85 224.09 223.33 222.11 C 223.79 222.27 224.69 222.61 225.14 222.77 C 225.21 222.24 225.35 221.19 225.42 220.66 C 225.98 220.39 227.10 219.87 227.66 219.61 C 227.54 219.24 227.29 218.49 227.17 218.11 C 226.49 218.57 225.12 219.47 224.44 219.92 C 224.50 216.42 225.73 213.13 227.15 209.99 C 226.35 209.59 225.56 209.20 224.77 208.80 C 222.88 209.89 220.92 210.87 218.95 211.81 C 218.58 211.44 217.84 210.69 217.47 210.32 C 216.19 212.48 214.32 214.10 212.01 215.08 C 211.64 214.52 210.90 213.41 210.53 212.86 C 208.61 213.45 206.71 214.07 204.81 214.70 C 204.34 214.47 203.40 214.00 202.93 213.77 C 201.64 214.30 200.34 214.82 199.04 215.35 C 198.53 214.48 198.02 213.63 197.51 212.77 C 195.63 212.30 193.82 211.65 192.08 210.82 C 190.45 211.12 188.83 211.46 187.20 211.81 C 186.78 210.63 186.37 209.47 185.95 208.30 C 185.49 208.65 184.55 209.34 184.09 209.68 M 236.94 214.89 C 238.45 213.94 239.97 212.98 241.48 212.03 C 241.31 211.07 240.95 209.14 240.78 208.17 C 239.23 210.25 237.95 212.50 236.94 214.89 M 197.14 254.83 C 197.00 256.98 197.03 259.13 197.21 261.28 C 201.83 260.86 201.32 255.53 197.14 254.83 Z" />
<path fill="#000a00" opacity="1.00" d=" M 249.19 132.02 C 252.21 131.98 255.23 131.97 258.26 131.98 C 258.10 134.29 257.95 136.61 257.67 138.91 C 256.27 137.30 256.49 135.08 256.19 133.11 C 252.04 135.63 255.24 142.47 254.23 146.80 C 254.88 147.53 255.52 148.25 256.17 148.99 C 254.39 148.99 252.61 148.99 250.83 148.99 C 251.47 148.25 252.12 147.52 252.77 146.80 C 252.67 142.09 253.10 137.34 252.27 132.67 C 250.42 134.15 250.87 136.69 250.36 138.72 C 248.53 137.00 249.45 134.24 249.19 132.02 Z" />
<path fill="#000a00" opacity="1.00" d=" M 259.09 131.97 C 259.81 131.97 261.26 131.96 261.99 131.96 C 261.32 134.49 261.19 137.11 261.18 139.72 C 261.88 139.74 263.30 139.79 264.00 139.82 C 264.08 137.15 264.09 134.42 262.89 131.96 C 266.61 132.18 270.34 132.03 274.06 131.95 C 274.03 134.27 273.97 136.59 273.77 138.90 C 272.17 137.39 272.53 135.08 272.20 133.12 C 269.05 133.68 270.59 137.25 270.20 139.47 C 270.93 139.69 272.40 140.12 273.13 140.34 C 272.16 140.75 271.20 141.16 270.23 141.57 C 270.58 143.79 268.99 147.45 272.22 147.87 C 272.53 145.91 272.19 143.62 273.77 142.11 C 273.96 144.40 274.01 146.71 274.03 149.01 C 270.33 148.96 266.63 148.85 262.93 149.02 C 264.12 146.50 264.09 143.70 264.05 140.98 C 263.33 141.00 261.88 141.03 261.16 141.04 C 261.17 143.71 261.28 146.40 261.96 149.00 C 261.21 149.00 259.72 149.01 258.97 149.01 C 260.30 143.46 260.03 137.57 259.09 131.97 M 266.98 148.28 C 267.35 148.13 268.09 147.83 268.46 147.69 C 268.22 143.02 270.63 135.80 266.98 132.74 C 264.56 136.38 264.54 144.66 266.98 148.28 Z" />
<path fill="#000a00" opacity="1.00" d=" M 141.18 136.03 C 142.24 132.28 148.46 134.12 147.20 138.00 C 146.79 142.76 149.75 152.65 141.79 151.35 C 140.47 146.37 140.94 141.11 141.18 136.03 M 142.78 135.71 C 142.37 140.40 142.14 145.21 142.89 149.88 C 146.98 151.10 145.46 145.34 145.80 142.99 C 145.39 140.55 147.19 134.40 142.78 135.71 Z" />
<path fill="#000a00" opacity="1.00" d=" M 148.34 134.16 C 150.41 134.22 152.49 134.26 154.57 134.30 C 154.45 136.66 154.95 139.28 153.44 141.31 C 153.14 139.27 152.96 137.21 152.78 135.16 C 149.32 135.52 151.22 139.77 150.74 142.12 C 151.66 142.45 152.59 142.78 153.52 143.12 C 149.07 143.44 150.67 148.68 152.17 151.23 C 150.85 151.23 149.53 151.23 148.22 151.24 C 149.90 145.75 149.68 139.70 148.34 134.16 Z" />
<path fill="#000a00" opacity="1.00" d=" M 142.21 165.89 C 146.52 162.72 150.68 159.19 155.43 156.70 C 151.75 160.62 147.40 164.22 142.21 165.89 Z" />
<path fill="#000a00" opacity="1.00" d=" M 134.70 164.44 C 137.77 161.30 141.92 159.46 145.96 157.92 C 142.70 160.83 138.66 162.70 134.70 164.44 Z" />
<path fill="#000a00" opacity="1.00" d=" M 256.00 157.38 C 260.22 160.13 264.48 162.87 268.37 166.08 C 263.57 164.40 259.09 161.44 256.00 157.38 Z" />
<path fill="#000a00" opacity="1.00" d=" M 269.88 160.92 C 271.77 160.94 274.52 162.33 275.09 164.16 C 273.22 164.09 270.52 162.67 269.88 160.92 Z" />
<path fill="#000a00" opacity="1.00" d=" M 259.44 165.86 C 265.56 169.15 271.35 173.28 275.76 178.71 L 275.45 179.35 C 270.12 174.85 264.38 170.81 259.44 165.86 Z" />
<path fill="#000a00" opacity="1.00" d=" M 137.74 168.06 C 141.35 167.71 135.27 172.49 134.33 170.50 C 135.06 169.27 136.51 168.67 137.74 168.06 Z" />
<path fill="#000a00" opacity="1.00" d=" M 134.59 179.26 C 137.94 173.29 144.30 169.84 149.97 166.42 C 145.41 171.30 140.02 175.40 134.59 179.26 Z" />
<path fill="#000a00" opacity="1.00" d=" M 271.23 168.06 C 272.85 167.79 275.61 169.13 275.82 170.84 C 274.17 171.13 271.46 169.77 271.23 168.06 Z" />
<path fill="#000a00" opacity="1.00" d=" M 256.83 169.99 C 263.07 172.19 267.74 177.29 272.12 182.02 C 266.59 178.62 261.91 174.01 256.83 169.99 Z" />
<path fill="#000a00" opacity="1.00" d=" M 144.92 175.04 C 147.40 173.07 150.08 171.36 153.03 170.16 C 150.66 172.47 147.99 174.44 145.49 176.61 C 145.35 176.22 145.06 175.43 144.92 175.04 Z" />
<path fill="#000a00" opacity="1.00" d=" M 147.39 180.18 C 148.64 177.79 150.89 176.22 153.28 175.11 C 152.39 177.77 149.69 178.97 147.39 180.18 Z" />
<path fill="#000a00" opacity="1.00" d=" M 256.54 175.56 C 259.37 175.67 261.64 177.69 262.68 180.23 C 260.40 178.99 258.35 177.39 256.54 175.56 Z" />
<path fill="#000a00" opacity="1.00" d=" M 147.83 184.39 C 149.73 182.47 151.75 180.63 154.12 179.29 C 152.35 182.14 150.06 184.64 147.40 186.68 C 146.23 187.26 145.03 187.77 143.83 188.29 C 145.14 186.97 146.49 185.68 147.83 184.39 Z" />
<path fill="#000a00" opacity="1.00" d=" M 212.68 196.72 C 214.66 192.86 218.58 190.66 222.14 188.48 C 221.31 189.74 220.45 190.98 219.59 192.22 C 220.24 192.36 221.54 192.63 222.19 192.77 C 221.28 194.63 219.61 194.73 217.81 194.03 C 216.10 194.94 214.41 195.86 212.68 196.72 Z" />
<path fill="#000a00" opacity="1.00" d=" M 189.44 213.14 C 192.74 213.75 196.25 214.35 198.35 217.30 C 196.73 217.53 195.10 217.72 193.48 217.90 C 192.13 216.31 190.73 214.76 189.44 213.14 Z" />
<path fill="#000a00" opacity="1.00" d=" M 216.26 214.87 C 218.34 213.89 220.52 213.13 222.84 212.96 C 221.21 214.90 219.02 216.17 216.87 217.42 C 216.72 216.78 216.42 215.51 216.26 214.87 Z" />
<path fill="#000a00" opacity="1.00" d=" M 204.68 217.82 C 207.39 217.75 210.09 217.60 212.80 217.54 C 210.41 219.20 207.63 220.05 204.88 220.86 C 204.83 220.10 204.73 218.58 204.68 217.82 Z" />
<path fill="#000a00" opacity="1.00" d=" M 201.79 224.66 C 204.16 225.07 206.88 225.03 208.59 227.02 C 206.36 227.47 204.10 227.69 201.84 227.90 C 201.83 227.09 201.80 225.47 201.79 224.66 Z" />
<path fill="#000a00" opacity="1.00" d=" M 145.62 231.50 C 150.48 230.43 155.75 230.19 160.50 231.89 C 163.51 234.00 165.59 237.24 168.76 239.18 C 172.32 241.66 177.28 242.99 178.82 247.53 C 174.48 245.38 171.13 240.93 166.01 240.67 C 160.32 240.20 154.61 240.65 148.93 241.03 C 145.60 241.22 142.26 241.10 138.94 240.87 C 137.80 236.07 141.38 232.77 145.62 231.50 Z" />
<path fill="#000a00" opacity="1.00" d=" M 243.90 237.92 C 246.42 236.15 248.14 233.40 250.80 231.84 C 256.98 229.85 263.80 230.61 269.68 233.24 C 271.38 235.21 272.02 237.76 272.62 240.23 C 270.16 240.74 267.68 241.19 265.16 241.31 C 258.46 240.76 251.71 240.10 244.99 240.69 C 239.88 240.98 236.47 245.29 232.16 247.46 C 234.09 242.27 239.98 241.10 243.90 237.92 Z" />
<path fill="#000a00" opacity="1.00" d=" M 159.21 245.22 C 163.44 246.39 167.59 247.85 171.64 249.56 C 171.54 250.63 171.44 251.70 171.34 252.78 C 169.06 251.42 166.65 250.32 164.09 249.64 C 164.23 252.06 164.42 254.48 164.68 256.90 C 166.20 256.73 167.74 256.57 169.27 256.41 C 169.30 258.28 169.32 260.15 169.34 262.02 C 167.78 261.30 166.23 260.56 164.67 259.84 C 163.88 263.44 164.32 267.10 165.39 270.59 C 163.28 270.47 161.15 270.31 159.11 269.73 C 159.63 267.01 159.95 264.25 159.72 261.48 C 159.21 256.06 160.19 250.61 159.21 245.22 Z" />
<path fill="#000a00" opacity="1.00" d=" M 237.45 249.67 C 242.14 248.40 246.68 246.70 251.34 245.35 C 251.20 246.89 251.05 248.45 250.90 250.00 C 249.54 249.65 248.19 249.29 246.84 248.95 C 247.77 256.04 245.84 263.09 247.33 270.10 C 245.25 270.10 243.18 270.10 241.11 270.07 C 242.22 263.53 241.48 256.89 241.84 250.30 C 240.45 251.57 239.11 252.89 237.76 254.21 C 237.65 252.69 237.55 251.18 237.45 249.67 Z" />
<path fill="#000a00" opacity="1.00" d=" M 177.21 251.20 C 185.26 248.89 192.56 259.92 187.46 266.49 C 185.05 271.87 175.91 271.78 174.25 265.86 C 171.85 261.27 172.01 253.63 177.21 251.20 M 179.42 252.90 C 179.02 254.39 178.63 255.88 178.25 257.38 C 180.09 257.88 181.92 258.41 183.76 258.94 C 183.08 256.38 182.74 253.03 179.42 252.90 M 177.86 262.34 C 178.22 264.95 178.73 267.68 181.02 269.33 C 182.85 267.84 183.51 265.73 183.44 263.42 C 181.55 263.21 179.69 262.85 177.86 262.34 Z" />
<path fill="#000a00" opacity="1.00" d=" M 224.32 255.28 C 225.86 250.78 231.39 250.74 235.33 250.66 C 235.02 252.39 234.70 254.12 234.34 255.85 C 233.16 254.80 231.99 253.74 230.83 252.69 C 225.67 255.57 231.47 258.98 234.88 259.63 C 235.99 262.06 238.07 265.23 235.69 267.60 C 233.04 271.34 228.08 270.17 224.22 269.80 C 224.28 268.12 224.36 266.44 224.47 264.77 C 226.61 265.78 227.53 268.47 229.91 268.99 C 231.34 268.03 232.36 266.61 233.41 265.27 C 230.05 262.47 223.42 260.76 224.32 255.28 Z" />
<path fill="#000a00" opacity="1.00" d=" M 208.56 253.78 C 212.95 254.26 221.22 249.58 221.49 256.64 C 219.90 256.10 218.32 255.52 216.75 254.93 C 216.12 255.01 214.85 255.17 214.22 255.26 C 214.15 256.90 214.09 258.54 214.03 260.19 C 215.63 259.76 217.23 259.34 218.84 258.95 C 218.66 260.47 218.48 262.00 218.29 263.53 C 216.92 263.20 215.54 262.87 214.17 262.54 C 214.08 264.52 213.99 266.51 213.89 268.50 C 216.94 269.41 219.18 266.97 221.62 265.61 C 221.65 267.03 221.67 268.46 221.69 269.89 C 217.45 270.16 213.20 270.05 208.95 270.00 C 209.61 264.65 208.57 259.20 208.56 253.78 Z" />
<path fill="#000a00" opacity="1.00" d=" M 155.65 276.09 C 157.11 276.12 158.58 276.14 160.04 276.18 C 160.15 278.71 160.24 281.24 160.29 283.78 C 163.10 284.15 165.92 284.51 168.71 285.03 C 165.58 285.49 162.43 285.78 159.29 286.15 C 159.28 286.54 159.26 287.33 159.25 287.72 C 158.05 298.37 157.63 309.11 158.35 319.82 C 162.60 321.16 166.86 322.45 171.14 323.70 C 166.93 324.90 161.93 325.19 159.13 329.03 C 156.00 332.73 147.71 334.10 146.59 327.94 C 147.12 323.26 152.17 322.03 155.83 320.60 C 155.55 309.17 155.95 297.71 155.01 286.31 C 150.74 287.13 146.39 287.90 142.04 287.23 C 142.34 286.14 142.65 285.04 142.95 283.96 C 146.92 284.33 150.89 284.68 154.87 285.01 L 154.83 284.32 C 155.05 281.57 155.46 278.84 155.65 276.09 Z" />
<path fill="#000a00" opacity="1.00" d=" M 178.57 277.78 C 186.22 276.25 197.45 273.67 200.52 283.54 C 206.58 276.97 216.07 280.83 223.79 279.50 C 230.42 279.54 238.39 277.94 243.87 282.55 C 235.50 281.98 227.06 282.50 218.88 284.40 C 220.09 285.61 221.30 286.82 222.51 288.04 C 221.90 293.31 221.40 298.58 220.90 303.86 C 219.79 312.98 220.98 322.21 219.59 331.30 C 218.54 322.07 217.60 312.78 217.97 303.48 C 219.37 297.11 215.74 290.83 217.59 284.63 C 212.77 287.93 206.05 289.94 201.30 285.36 C 202.36 290.77 201.68 296.43 198.59 301.09 L 198.40 301.08 C 194.63 303.94 189.20 304.91 185.31 301.68 C 188.62 301.56 191.93 301.54 195.23 301.31 C 198.83 295.88 199.94 288.59 196.04 282.99 C 194.14 279.05 189.26 279.66 185.63 279.34 C 183.84 285.97 182.72 292.74 181.92 299.55 C 180.86 311.22 174.77 321.82 174.93 333.64 C 171.65 322.13 177.78 310.65 177.48 299.01 C 178.56 291.98 179.64 284.89 178.57 277.78 Z" />
<path fill="#000a00" opacity="1.00" d=" M 260.28 288.36 C 261.88 285.14 262.86 281.25 266.30 279.43 C 264.14 287.19 259.20 293.98 258.07 302.07 C 257.25 307.98 256.53 314.07 253.40 319.30 C 251.66 322.16 250.48 326.91 246.33 326.71 C 244.02 325.22 244.54 322.10 244.17 319.74 C 243.97 313.56 242.13 307.62 240.31 301.77 C 239.27 298.38 236.82 295.74 235.09 292.73 C 234.12 290.42 236.85 287.60 239.16 288.72 C 244.36 290.45 243.24 297.01 245.12 301.10 C 246.51 305.78 247.37 310.60 248.54 315.34 C 253.63 306.86 255.09 296.81 260.28 288.36 Z" />
</g>
<g id="#97f1e3ff">
<path fill="#97f1e3" opacity="1.00" d=" M 189.75 42.04 C 191.52 35.98 196.70 31.51 201.97 28.39 C 211.94 34.43 204.40 46.45 208.13 54.96 C 211.23 54.43 212.70 50.87 212.85 48.05 C 212.85 41.45 212.89 34.71 214.97 28.37 C 220.34 32.99 225.22 38.16 230.66 42.72 C 232.90 39.99 236.01 38.34 239.28 37.18 C 243.77 43.25 248.87 49.12 251.77 56.17 C 255.97 72.60 254.94 89.87 259.30 106.29 C 269.07 90.76 262.87 71.77 264.70 54.64 C 267.06 66.58 265.32 79.17 269.08 90.85 C 273.40 82.70 268.45 72.18 273.18 64.13 C 279.97 60.68 284.80 69.78 287.09 74.93 C 288.10 85.98 288.25 97.14 289.25 108.22 C 276.38 108.41 263.50 108.04 250.63 108.38 C 250.09 109.32 249.55 110.25 248.99 111.17 C 247.32 109.94 245.65 108.71 243.98 107.49 C 243.24 107.96 242.51 108.43 241.79 108.91 C 238.95 108.50 236.07 108.41 233.21 108.56 C 233.45 109.28 233.93 110.71 234.17 111.43 C 230.65 109.74 225.09 105.61 229.11 101.60 C 231.09 102.63 232.18 104.65 233.54 106.32 C 233.84 104.22 234.09 102.11 234.30 100.00 C 231.24 99.73 227.30 98.08 224.94 100.90 C 222.55 103.40 223.45 107.16 224.70 109.98 C 222.58 109.29 220.45 108.63 218.27 108.19 C 216.59 108.70 214.96 109.34 213.33 109.95 C 213.26 107.19 213.25 104.42 213.32 101.66 C 216.06 101.60 218.15 103.28 220.10 105.00 C 219.94 102.96 219.69 100.92 219.33 98.91 C 215.54 99.19 211.75 99.44 207.96 99.62 C 209.10 104.06 208.47 108.61 208.02 113.08 C 207.39 111.64 206.73 110.22 206.08 108.79 C 204.78 108.51 203.48 108.22 202.19 107.94 C 203.04 105.07 204.40 102.39 205.67 99.70 C 198.58 97.13 201.43 105.13 198.81 108.97 C 197.20 106.11 196.30 102.90 196.68 99.61 C 194.56 99.60 192.45 99.62 190.33 99.69 C 192.14 103.82 193.86 108.08 194.18 112.63 C 192.20 109.46 189.11 107.37 185.22 108.07 C 183.63 108.68 182.09 109.39 180.55 110.10 C 180.44 107.13 180.43 104.15 180.77 101.19 C 183.18 102.03 185.33 103.42 187.35 104.97 C 187.19 103.03 187.01 101.10 186.79 99.16 C 182.89 99.12 178.99 99.38 175.10 99.63 C 175.79 103.17 175.87 106.79 175.35 110.35 C 175.13 109.76 174.69 108.58 174.47 107.99 C 173.50 109.01 172.58 110.08 171.64 111.12 C 169.98 109.92 168.33 108.71 166.68 107.50 C 164.87 108.72 163.07 109.95 161.26 111.17 C 160.60 110.26 159.96 109.34 159.34 108.41 C 140.13 108.19 120.90 108.07 101.69 108.48 C 101.35 110.69 100.99 112.90 100.75 115.13 C 100.18 104.42 96.87 92.29 103.78 82.87 C 107.85 81.92 111.65 80.33 114.11 76.76 C 120.67 80.73 117.30 90.33 121.51 96.07 C 122.88 88.44 122.23 80.65 123.01 72.97 C 123.30 69.80 125.37 67.11 128.07 65.54 C 130.34 72.66 127.96 80.61 131.44 87.42 C 132.26 88.85 133.86 91.42 135.61 89.63 C 138.82 82.20 137.54 73.89 138.24 66.06 C 140.01 59.06 144.92 53.43 149.24 47.83 C 150.26 48.59 151.28 49.36 152.30 50.12 C 155.41 43.85 161.28 39.87 167.46 36.99 C 168.62 42.24 168.75 47.61 169.32 52.92 C 169.36 54.97 171.25 55.79 173.00 56.05 C 174.59 49.19 169.77 41.00 174.86 35.16 C 187.89 43.25 182.48 60.29 185.21 72.75 C 185.92 72.86 187.35 73.08 188.07 73.19 C 191.63 63.18 188.83 52.37 189.75 42.04 Z" />
<path fill="#97f1e3" opacity="1.00" d=" M 89.92 103.97 C 90.67 102.10 90.91 97.22 93.60 98.25 C 96.18 107.83 93.38 117.69 93.77 127.40 L 93.24 126.36 C 91.72 119.01 90.39 111.47 89.92 103.97 Z" />
<path fill="#97f1e3" opacity="1.00" d=" M 157.68 162.07 C 160.61 163.68 159.44 167.45 158.43 169.88 C 157.52 167.37 157.35 164.70 157.68 162.07 Z" />
<path fill="#97f1e3" opacity="1.00" d=" M 251.41 170.77 C 251.26 167.84 249.34 164.08 252.39 161.94 C 252.97 164.93 252.44 167.94 251.41 170.77 Z" />
<path fill="#97f1e3" opacity="1.00" d=" M 158.43 170.98 C 160.33 175.57 160.89 180.62 161.89 185.46 C 159.19 181.47 157.58 175.83 158.43 170.98 Z" />
<path fill="#97f1e3" opacity="1.00" d=" M 248.14 185.34 C 249.61 180.43 250.14 175.28 251.85 170.46 C 252.59 175.38 251.32 181.75 248.14 185.34 Z" />
<path fill="#97f1e3" opacity="1.00" d=" M 247.05 189.60 C 248.34 188.77 249.64 187.96 250.95 187.17 C 248.32 189.99 245.98 193.05 243.55 196.04 C 240.85 197.25 237.96 198.29 235.13 196.75 C 236.03 195.32 236.95 193.90 237.90 192.49 C 238.39 192.90 239.39 193.71 239.89 194.12 C 239.37 194.78 238.31 196.09 237.79 196.75 C 241.34 196.41 244.21 194.37 246.22 191.52 C 245.39 191.53 243.72 191.55 242.88 191.56 C 243.31 190.71 243.73 189.87 244.15 189.03 C 244.88 189.17 246.33 189.46 247.05 189.60 Z" />
<path fill="#97f1e3" opacity="1.00" d=" M 163.18 196.92 C 164.50 197.40 165.81 197.89 167.13 198.39 C 165.75 198.90 164.38 199.41 163.01 199.91 C 163.05 199.16 163.14 197.67 163.18 196.92 Z" />
<path fill="#97f1e3" opacity="1.00" d=" M 167.47 198.64 C 169.48 199.00 171.49 199.40 173.48 199.83 C 173.36 200.64 173.11 202.24 172.98 203.05 C 172.32 202.39 171.66 201.73 171.00 201.08 C 170.52 201.17 169.55 201.36 169.07 201.45 C 168.53 200.51 168.00 199.58 167.47 198.64 Z" />
<path fill="#97f1e3" opacity="1.00" d=" M 236.79 199.77 C 238.85 199.56 241.26 198.34 243.06 200.01 C 240.60 200.26 238.10 200.74 236.96 203.23 C 236.92 202.36 236.83 200.63 236.79 199.77 Z" />
<path fill="#97f1e3" opacity="1.00" d=" M 219.16 206.49 C 221.66 206.16 224.13 205.60 226.63 205.24 C 223.88 206.77 220.82 207.62 217.77 208.36 C 218.12 207.90 218.81 206.96 219.16 206.49 Z" />
<path fill="#97f1e3" opacity="1.00" d=" M 169.15 207.97 C 171.12 210.55 173.48 213.00 174.26 216.26 C 172.52 214.85 170.84 213.37 169.09 211.98 C 169.11 210.64 169.13 209.30 169.15 207.97 Z" />
<path fill="#97f1e3" opacity="1.00" d=" M 184.09 209.68 C 184.55 209.34 185.49 208.65 185.95 208.30 C 186.37 209.47 186.78 210.63 187.20 211.81 C 188.83 211.46 190.45 211.12 192.08 210.82 C 193.82 211.65 195.63 212.30 197.51 212.77 C 198.02 213.63 198.53 214.48 199.04 215.35 C 200.34 214.82 201.64 214.30 202.93 213.77 C 203.40 214.00 204.34 214.47 204.81 214.70 C 206.71 214.07 208.61 213.45 210.53 212.86 C 210.90 213.41 211.64 214.52 212.01 215.08 C 214.32 214.10 216.19 212.48 217.47 210.32 C 217.84 210.69 218.58 211.44 218.95 211.81 C 220.92 210.87 222.88 209.89 224.77 208.80 C 225.56 209.20 226.35 209.59 227.15 209.99 C 225.73 213.13 224.50 216.42 224.44 219.92 C 225.12 219.47 226.49 218.57 227.17 218.11 C 227.29 218.49 227.54 219.24 227.66 219.61 C 227.10 219.87 225.98 220.39 225.42 220.66 C 225.35 221.19 225.21 222.24 225.14 222.77 C 224.69 222.61 223.79 222.27 223.33 222.11 C 221.85 224.09 220.18 226.02 219.53 228.48 C 214.27 224.94 209.73 233.07 204.89 234.94 C 200.58 232.62 197.67 228.40 192.92 226.76 C 192.27 227.06 191.61 227.36 190.96 227.67 C 189.52 225.48 187.85 223.47 186.10 221.53 C 185.87 222.77 185.65 224.01 185.44 225.26 C 185.15 224.02 184.86 222.80 184.56 221.58 C 183.61 220.54 182.90 219.32 182.54 217.95 C 185.89 219.40 188.73 221.82 192.17 223.07 C 190.28 220.60 187.55 218.96 185.54 216.65 C 184.97 213.44 183.49 210.60 180.60 208.92 C 181.47 209.11 183.21 209.49 184.09 209.68 M 189.44 213.14 C 190.73 214.76 192.13 216.31 193.48 217.90 C 195.10 217.72 196.73 217.53 198.35 217.30 C 196.25 214.35 192.74 213.75 189.44 213.14 M 216.26 214.87 C 216.42 215.51 216.72 216.78 216.87 217.42 C 219.02 216.17 221.21 214.90 222.84 212.96 C 220.52 213.13 218.34 213.89 216.26 214.87 M 204.68 217.82 C 204.73 218.58 204.83 220.10 204.88 220.86 C 207.63 220.05 210.41 219.20 212.80 217.54 C 210.09 217.60 207.39 217.75 204.68 217.82 M 201.79 224.66 C 201.80 225.47 201.83 227.09 201.84 227.90 C 204.10 227.69 206.36 227.47 208.59 227.02 C 206.88 225.03 204.16 225.07 201.79 224.66 Z" />
<path fill="#97f1e3" opacity="1.00" d=" M 236.94 214.89 C 237.95 212.50 239.23 210.25 240.78 208.17 C 240.95 209.14 241.31 211.07 241.48 212.03 C 239.97 212.98 238.45 213.94 236.94 214.89 Z" />
</g>
<g id="#c8f5eaff">
<path fill="#c8f5ea" opacity="1.00" d=" M 302.34 102.02 C 303.28 96.68 304.99 89.84 310.58 87.65 C 310.76 102.76 310.74 117.95 312.80 132.95 C 313.35 135.25 313.23 138.43 315.87 139.45 C 317.04 131.57 316.29 123.56 317.09 115.64 C 320.93 120.57 318.73 127.20 320.16 132.84 C 321.80 133.76 323.41 132.75 324.96 132.17 C 323.19 138.58 321.81 145.08 320.01 151.48 C 315.67 153.26 313.19 157.45 309.37 159.97 C 307.29 152.99 305.37 145.95 302.79 139.14 C 302.51 139.98 301.96 141.65 301.68 142.49 C 300.01 146.89 298.28 151.27 296.33 155.56 C 286.85 160.38 280.64 169.58 275.76 178.71 C 271.35 173.28 265.56 169.15 259.44 165.86 C 264.38 170.81 270.12 174.85 275.45 179.35 C 273.71 184.50 267.24 183.85 263.64 181.14 C 263.99 182.56 264.34 183.98 264.69 185.41 C 262.01 183.06 259.37 180.64 256.44 178.61 C 256.53 181.74 258.99 183.86 260.89 186.05 C 259.74 186.40 258.61 186.76 257.47 187.11 C 256.57 184.54 255.34 182.08 253.38 180.15 C 254.58 173.64 255.46 166.65 253.58 160.20 C 249.48 152.67 243.46 144.80 245.34 135.71 C 248.32 129.76 251.69 123.96 254.08 117.72 C 244.11 115.61 238.58 126.25 230.59 129.59 C 213.77 126.84 196.40 126.79 179.57 129.55 C 171.57 126.25 166.11 115.58 156.07 117.68 C 159.03 123.37 160.76 130.09 165.41 134.65 C 165.16 134.84 164.91 135.02 164.66 135.22 C 167.69 144.96 159.86 152.86 156.28 161.16 C 154.74 167.40 155.75 173.97 156.76 180.21 C 154.74 182.21 153.58 184.79 152.46 187.35 C 152.10 187.64 151.39 188.22 151.03 188.51 C 149.82 187.90 148.61 187.29 147.40 186.68 C 150.06 184.64 152.35 182.14 154.12 179.29 C 151.75 180.63 149.73 182.47 147.83 184.39 C 146.54 182.79 145.23 181.21 143.91 179.64 C 144.44 178.63 144.96 177.62 145.49 176.61 C 147.99 174.44 150.66 172.47 153.03 170.16 C 150.08 171.36 147.40 173.07 144.92 175.04 C 141.77 177.56 138.24 179.56 134.48 181.02 C 132.69 178.44 130.86 175.88 129.01 173.34 C 128.43 173.45 127.27 173.66 126.70 173.76 C 125.85 171.48 124.96 169.21 124.12 166.93 C 123.98 166.50 123.69 165.64 123.55 165.21 C 122.06 170.99 120.50 176.77 118.67 182.46 C 114.34 174.53 114.21 165.23 111.15 156.89 C 107.69 152.73 102.35 150.66 98.29 147.11 C 96.90 142.32 95.53 137.47 95.19 132.46 C 96.30 134.20 97.70 135.72 99.94 135.60 C 101.22 128.84 100.60 121.95 100.75 115.13 C 100.99 112.90 101.35 110.69 101.69 108.48 C 120.90 108.07 140.13 108.19 159.34 108.41 C 159.96 109.34 160.60 110.26 161.26 111.17 C 162.93 112.80 164.86 114.13 166.74 115.50 C 168.41 114.09 170.13 112.71 171.64 111.12 C 172.58 110.08 173.50 109.01 174.47 107.99 C 174.69 108.58 175.13 109.76 175.35 110.35 C 175.48 115.00 176.47 119.72 175.06 124.28 C 179.54 124.59 184.04 124.63 188.52 124.30 C 188.23 122.06 187.86 119.82 187.38 117.61 C 186.23 119.13 185.11 120.67 184.00 122.22 C 183.14 122.21 181.42 122.19 180.56 122.18 C 180.52 119.01 180.53 115.84 180.58 112.67 C 181.89 113.38 183.20 114.10 184.52 114.82 C 184.80 112.57 185.01 110.32 185.22 108.07 C 189.11 107.37 192.20 109.46 194.18 112.63 C 194.60 113.13 195.45 114.14 195.87 114.64 C 195.57 118.08 195.27 121.53 194.72 124.95 C 196.77 124.93 198.81 124.90 200.86 124.85 C 199.61 119.16 200.67 113.45 202.19 107.94 C 203.48 108.22 204.78 108.51 206.08 108.79 C 206.73 110.22 207.39 111.64 208.02 113.08 C 208.84 116.77 209.05 120.59 208.01 124.25 C 212.34 124.38 216.83 125.19 221.07 123.98 C 221.53 121.90 220.91 119.84 220.48 117.82 C 218.59 119.94 216.73 122.34 213.70 122.72 C 213.41 119.38 213.29 116.03 213.32 112.69 C 214.65 113.38 215.97 114.09 217.29 114.80 C 217.67 112.60 217.98 110.40 218.27 108.19 C 220.45 108.63 222.58 109.29 224.70 109.98 C 226.93 113.33 230.42 115.55 232.75 118.84 C 231.51 120.35 230.26 121.85 228.99 123.35 C 227.23 121.28 225.62 119.09 223.88 117.02 C 223.64 119.45 223.54 121.90 223.53 124.34 C 227.19 124.59 231.82 125.88 234.44 122.43 C 237.54 119.30 235.33 114.90 234.17 111.43 C 233.93 110.71 233.45 109.28 233.21 108.56 C 236.07 108.41 238.95 108.50 241.79 108.91 C 240.64 109.69 239.50 110.47 238.37 111.26 C 240.25 112.66 242.15 114.04 244.04 115.43 C 245.74 114.07 247.47 112.73 248.99 111.17 C 249.55 110.25 250.09 109.32 250.63 108.38 C 263.50 108.04 276.38 108.41 289.25 108.22 C 290.64 117.80 291.80 128.01 297.01 136.38 C 303.19 126.17 303.09 113.56 302.34 102.02 M 249.19 132.02 C 249.45 134.24 248.53 137.00 250.36 138.72 C 250.87 136.69 250.42 134.15 252.27 132.67 C 253.10 137.34 252.67 142.09 252.77 146.80 C 252.12 147.52 251.47 148.25 250.83 148.99 C 252.61 148.99 254.39 148.99 256.17 148.99 C 255.52 148.25 254.88 147.53 254.23 146.80 C 255.24 142.47 252.04 135.63 256.19 133.11 C 256.49 135.08 256.27 137.30 257.67 138.91 C 257.95 136.61 258.10 134.29 258.26 131.98 C 255.23 131.97 252.21 131.98 249.19 132.02 M 259.09 131.97 C 260.03 137.57 260.30 143.46 258.97 149.01 C 259.72 149.01 261.21 149.00 261.96 149.00 C 261.28 146.40 261.17 143.71 261.16 141.04 C 261.88 141.03 263.33 141.00 264.05 140.98 C 264.09 143.70 264.12 146.50 262.93 149.02 C 266.63 148.85 270.33 148.96 274.03 149.01 C 274.01 146.71 273.96 144.40 273.77 142.11 C 272.19 143.62 272.53 145.91 272.22 147.87 C 268.99 147.45 270.58 143.79 270.23 141.57 C 271.20 141.16 272.16 140.75 273.13 140.34 C 272.40 140.12 270.93 139.69 270.20 139.47 C 270.59 137.25 269.05 133.68 272.20 133.12 C 272.53 135.08 272.17 137.39 273.77 138.90 C 273.97 136.59 274.03 134.27 274.06 131.95 C 270.34 132.03 266.61 132.18 262.89 131.96 C 264.09 134.42 264.08 137.15 264.00 139.82 C 263.30 139.79 261.88 139.74 261.18 139.72 C 261.19 137.11 261.32 134.49 261.99 131.96 C 261.26 131.96 259.81 131.97 259.09 131.97 M 141.18 136.03 C 140.94 141.11 140.47 146.37 141.79 151.35 C 149.75 152.65 146.79 142.76 147.20 138.00 C 148.46 134.12 142.24 132.28 141.18 136.03 M 148.34 134.16 C 149.68 139.70 149.90 145.75 148.22 151.24 C 149.53 151.23 150.85 151.23 152.17 151.23 C 150.67 148.68 149.07 143.44 153.52 143.12 C 152.59 142.78 151.66 142.45 150.74 142.12 C 151.22 139.77 149.32 135.52 152.78 135.16 C 152.96 137.21 153.14 139.27 153.44 141.31 C 154.95 139.28 154.45 136.66 154.57 134.30 C 152.49 134.26 150.41 134.22 148.34 134.16 M 142.21 165.89 C 147.40 164.22 151.75 160.62 155.43 156.70 C 150.68 159.19 146.52 162.72 142.21 165.89 M 134.70 164.44 C 138.66 162.70 142.70 160.83 145.96 157.92 C 141.92 159.46 137.77 161.30 134.70 164.44 M 256.00 157.38 C 259.09 161.44 263.57 164.40 268.37 166.08 C 264.48 162.87 260.22 160.13 256.00 157.38 M 269.88 160.92 C 270.52 162.67 273.22 164.09 275.09 164.16 C 274.52 162.33 271.77 160.94 269.88 160.92 M 137.74 168.06 C 136.51 168.67 135.06 169.27 134.33 170.50 C 135.27 172.49 141.35 167.71 137.74 168.06 M 134.59 179.26 C 140.02 175.40 145.41 171.30 149.97 166.42 C 144.30 169.84 137.94 173.29 134.59 179.26 M 271.23 168.06 C 271.46 169.77 274.17 171.13 275.82 170.84 C 275.61 169.13 272.85 167.79 271.23 168.06 M 256.83 169.99 C 261.91 174.01 266.59 178.62 272.12 182.02 C 267.74 177.29 263.07 172.19 256.83 169.99 M 147.39 180.18 C 149.69 178.97 152.39 177.77 153.28 175.11 C 150.89 176.22 148.64 177.79 147.39 180.18 M 256.54 175.56 C 258.35 177.39 260.40 178.99 262.68 180.23 C 261.64 177.69 259.37 175.67 256.54 175.56 Z" />
<path fill="#c8f5ea" opacity="1.00" d=" M 266.98 148.28 C 264.54 144.66 264.56 136.38 266.98 132.74 C 270.63 135.80 268.22 143.02 268.46 147.69 C 268.09 147.83 267.35 148.13 266.98 148.28 Z" />
<path fill="#c8f5ea" opacity="1.00" d=" M 142.78 135.71 C 147.19 134.40 145.39 140.55 145.80 142.99 C 145.46 145.34 146.98 151.10 142.89 149.88 C 142.14 145.21 142.37 140.40 142.78 135.71 Z" />
<path fill="#c8f5ea" opacity="1.00" d=" M 237.24 155.94 C 238.73 156.72 240.29 157.39 241.97 157.66 C 242.01 157.95 242.09 158.52 242.13 158.81 C 241.57 158.48 240.44 157.82 239.88 157.48 C 239.58 159.28 239.22 161.06 238.80 162.83 C 237.51 162.65 236.22 162.48 234.94 162.30 C 236.37 161.85 237.79 161.41 239.22 160.94 C 237.78 160.40 236.35 159.90 234.91 159.40 C 236.39 159.40 237.89 159.38 239.38 159.33 C 238.68 158.19 237.97 157.06 237.24 155.94 Z" />
<path fill="#c8f5ea" opacity="1.00" d=" M 231.13 160.27 C 232.11 161.67 232.99 163.14 233.86 164.62 C 233.34 165.63 232.83 166.64 232.32 167.66 C 231.91 165.20 231.43 162.75 231.13 160.27 Z" />
<path fill="#c8f5ea" opacity="1.00" d=" M 186.91 173.65 C 181.58 172.27 176.27 162.57 184.37 161.41 C 182.80 164.35 182.55 169.97 187.02 170.22 C 190.85 170.88 192.43 166.73 192.17 163.63 C 193.05 164.31 193.95 164.99 194.84 165.67 C 194.09 169.17 192.00 171.99 188.63 173.38 C 189.50 173.27 191.22 173.05 192.08 172.94 C 191.36 174.35 190.68 175.78 189.96 177.19 C 189.98 176.77 190.01 175.93 190.03 175.50 C 185.37 175.30 180.56 174.30 177.67 170.28 C 177.78 169.82 178.00 168.92 178.10 168.46 C 180.23 171.34 183.24 173.44 186.91 173.65 Z" />
<path fill="#c8f5ea" opacity="1.00" d=" M 159.21 187.24 C 160.42 188.00 161.62 188.79 162.81 189.61 C 163.59 189.48 165.14 189.23 165.91 189.11 C 166.35 189.90 166.79 190.69 167.24 191.48 C 166.49 191.54 165.00 191.66 164.26 191.73 C 166.24 194.55 169.22 196.33 172.56 197.09 C 171.80 196.02 171.00 194.98 170.20 193.96 C 170.99 193.43 171.79 192.91 172.58 192.38 C 173.35 193.87 174.10 195.36 174.85 196.87 C 167.45 200.13 163.58 191.38 159.21 187.24 Z" />
<path fill="#c8f5ea" opacity="1.00" d=" M 203.90 196.87 C 205.54 196.65 207.18 196.54 208.83 196.41 C 209.23 196.93 210.04 197.98 210.44 198.51 C 210.34 199.11 210.15 200.31 210.05 200.91 C 206.29 201.12 202.52 201.04 198.77 200.61 L 198.89 200.41 C 199.76 198.29 201.59 196.95 203.90 196.87 Z" />
<path fill="#c8f5ea" opacity="1.00" d=" M 179.59 198.95 C 180.06 199.07 180.99 199.29 181.46 199.41 C 181.08 201.72 181.03 204.07 180.76 206.40 C 180.52 204.81 180.31 203.23 180.12 201.64 C 179.15 202.04 178.18 202.44 177.20 202.84 C 177.20 202.60 177.21 202.12 177.21 201.88 C 178.60 201.44 180.55 200.81 179.59 198.95 Z" />
</g>
<g id="#007c7fff">
<path fill="#007c7f" opacity="1.00" d=" M 83.39 122.45 C 89.15 126.08 89.74 133.08 92.83 138.44 C 93.36 134.43 93.00 130.38 93.24 126.36 L 93.77 127.40 C 94.74 128.92 95.10 130.69 95.19 132.46 C 95.53 137.47 96.90 142.32 98.29 147.11 C 102.04 158.61 106.38 169.91 112.46 180.39 C 105.57 175.37 100.02 168.84 95.01 162.01 C 98.92 176.05 104.57 189.65 111.63 202.41 C 116.25 212.20 123.33 220.42 129.30 229.34 C 121.11 225.40 114.38 219.17 106.98 214.01 C 103.43 220.00 107.02 226.55 108.59 232.55 C 113.13 248.39 119.85 263.45 127.03 278.23 C 110.07 257.67 102.62 231.27 96.38 205.84 C 95.73 236.75 101.70 267.31 103.77 298.07 C 84.34 254.48 83.54 205.68 81.67 158.81 C 79.29 172.61 78.95 186.67 77.31 200.55 C 73.42 187.77 75.13 174.00 74.97 160.79 C 75.30 156.46 76.00 152.16 76.49 147.84 C 77.81 150.18 79.28 152.44 81.01 154.49 C 82.49 152.96 83.96 151.24 84.08 149.00 C 85.16 140.17 84.19 131.26 83.39 122.45 Z" />
<path fill="#007c7f" opacity="1.00" d=" M 324.96 132.17 C 325.12 128.14 328.91 127.78 332.02 128.68 C 330.87 154.93 329.35 181.25 324.29 207.09 C 329.59 196.72 332.36 185.31 336.98 174.66 C 336.55 185.39 333.62 195.80 331.34 206.23 C 325.32 229.47 318.22 252.70 307.19 274.09 C 307.91 264.60 310.42 255.35 310.90 245.83 C 301.58 267.61 290.43 289.45 272.98 305.90 C 289.69 282.60 299.08 255.22 308.27 228.34 C 311.01 221.63 308.02 214.60 307.30 207.82 C 302.21 211.99 298.09 217.21 292.77 221.11 C 300.84 205.44 309.23 189.61 313.24 172.31 C 315.26 165.29 318.60 158.69 320.01 151.48 C 321.81 145.08 323.19 138.58 324.96 132.17 Z" />
<path fill="#007c7f" opacity="1.00" d=" M 296.33 155.56 C 298.28 151.27 300.01 146.89 301.68 142.49 C 300.92 160.35 296.35 177.81 292.07 195.10 C 294.73 191.28 297.23 187.34 300.11 183.68 C 295.47 202.64 287.95 220.88 278.85 238.13 C 282.32 234.94 285.65 231.58 289.32 228.60 C 279.75 249.47 268.19 269.43 256.04 288.91 C 257.45 288.73 258.86 288.54 260.28 288.36 C 255.09 296.81 253.63 306.86 248.54 315.34 C 247.37 310.60 246.51 305.78 245.12 301.10 C 246.71 299.70 248.39 298.28 249.26 296.29 C 256.47 280.65 263.26 264.81 269.72 248.84 C 264.70 252.25 259.65 255.64 254.11 258.15 C 257.94 252.63 261.79 247.12 265.16 241.31 C 267.68 241.19 270.16 240.74 272.62 240.23 C 272.02 237.76 271.38 235.21 269.68 233.24 C 275.88 219.33 282.11 205.28 285.49 190.37 C 280.02 195.43 274.48 201.01 266.84 202.47 C 279.55 188.88 289.36 172.78 296.33 155.56 Z" />
<path fill="#007c7f" opacity="1.00" d=" M 237.86 171.86 C 240.63 168.39 238.86 163.29 242.05 160.12 C 242.24 164.37 241.07 168.55 241.45 172.81 C 240.46 172.80 239.49 172.80 238.51 172.80 C 243.87 176.49 245.62 169.14 244.01 165.19 C 248.01 169.12 246.11 176.32 243.46 180.62 C 238.18 185.52 232.25 189.75 226.18 193.61 C 226.09 192.85 225.90 191.32 225.81 190.55 C 224.73 190.50 223.65 190.43 222.58 190.37 C 223.19 191.73 223.81 193.08 224.44 194.43 C 221.59 195.83 218.75 197.29 216.18 199.17 C 216.01 198.58 215.66 197.41 215.49 196.82 C 215.31 197.90 215.13 198.98 214.96 200.06 C 214.67 199.73 214.10 199.08 213.81 198.75 C 212.77 199.83 211.71 201.04 210.05 200.91 C 210.15 200.31 210.34 199.11 210.44 198.51 C 210.50 198.15 210.62 197.44 210.67 197.08 C 209.14 195.25 207.74 193.13 209.78 191.01 C 210.24 192.26 210.70 193.54 211.16 194.81 C 212.79 192.91 214.37 190.95 215.73 188.85 C 216.35 189.06 216.97 189.28 217.59 189.50 C 217.82 188.97 218.27 187.90 218.49 187.37 C 219.05 187.15 220.17 186.71 220.73 186.49 C 220.89 185.26 221.06 184.05 221.23 182.83 C 222.17 183.11 223.11 183.39 224.05 183.68 C 223.27 182.26 222.55 180.82 221.93 179.33 C 219.77 176.90 218.05 174.15 216.35 171.40 C 215.97 168.27 214.58 164.32 218.67 163.17 C 218.96 165.89 218.74 170.67 222.74 170.42 C 227.17 169.94 226.54 164.62 225.96 161.48 C 232.75 161.45 230.04 169.76 226.74 172.70 C 228.81 171.39 230.61 169.72 232.25 167.90 C 232.60 168.60 233.30 170.00 233.66 170.71 C 229.70 174.15 224.89 175.92 219.64 175.95 C 221.43 176.74 223.27 177.42 225.17 177.91 C 225.82 178.72 226.47 179.55 227.12 180.38 C 228.23 180.11 229.34 179.86 230.46 179.61 C 229.89 178.37 229.31 177.14 228.76 175.90 C 231.42 175.90 234.95 177.33 236.52 174.27 C 235.29 174.58 234.06 174.91 232.84 175.25 C 233.31 173.78 233.76 172.31 234.21 170.83 C 235.60 170.46 236.90 170.67 237.86 171.86 M 234.89 176.80 C 233.90 179.70 232.12 183.39 234.40 186.15 C 234.53 184.44 234.56 182.72 234.54 181.01 C 235.23 180.58 236.60 179.70 237.29 179.27 C 236.51 178.42 235.71 177.60 234.89 176.80 M 212.68 196.72 C 214.41 195.86 216.10 194.94 217.81 194.03 C 219.61 194.73 221.28 194.63 222.19 192.77 C 221.54 192.63 220.24 192.36 219.59 192.22 C 220.45 190.98 221.31 189.74 222.14 188.48 C 218.58 190.66 214.66 192.86 212.68 196.72 Z" />
<path fill="#007c7f" opacity="1.00" d=" M 124.12 166.93 C 124.96 169.21 125.85 171.48 126.70 173.76 C 132.95 191.83 143.04 208.33 155.59 222.69 C 148.08 221.28 142.84 215.50 137.98 210.11 C 139.85 217.44 141.95 224.83 145.62 231.50 C 141.38 232.77 137.80 236.07 138.94 240.87 C 142.26 241.10 145.60 241.22 148.93 241.03 C 151.81 248.18 154.82 255.43 159.72 261.48 C 159.95 264.25 159.63 267.01 159.11 269.73 C 156.72 267.95 154.41 266.07 152.06 264.25 C 153.36 268.16 154.84 272.03 155.65 276.09 C 155.46 278.84 155.05 281.57 154.83 284.32 C 146.92 271.66 139.39 258.58 133.70 244.76 C 137.49 248.43 141.05 252.33 144.95 255.88 C 135.35 240.20 129.14 222.53 124.84 204.73 C 127.57 208.43 130.09 212.28 132.74 216.04 C 127.89 200.11 125.34 183.51 124.12 166.93 Z" />
</g>
<g id="#00464fff">
<path fill="#00464f" opacity="1.00" d=" M 332.02 128.68 C 337.70 131.54 336.73 138.37 337.48 143.67 C 338.61 151.63 339.50 159.74 342.21 167.36 C 347.70 168.41 347.69 174.67 348.26 179.05 C 348.72 185.78 351.87 192.14 351.38 198.96 C 350.90 213.66 357.25 228.23 353.78 242.91 C 350.57 257.51 349.23 272.66 343.68 286.65 C 339.17 298.47 325.04 300.61 316.37 308.34 C 308.91 315.81 300.11 321.82 291.09 327.25 C 293.42 322.62 296.66 318.48 298.45 313.59 C 290.33 320.36 283.18 328.23 274.96 334.92 C 276.24 331.81 277.43 328.67 278.41 325.46 C 271.22 330.78 265.17 337.46 258.02 342.85 C 259.12 340.74 260.18 338.61 261.13 336.43 C 256.57 338.84 253.47 343.08 249.46 346.22 C 249.89 345.10 250.33 343.99 250.76 342.87 C 242.12 344.92 234.33 349.34 226.14 352.64 C 223.89 350.18 222.45 345.98 218.82 345.45 C 211.72 346.56 205.41 351.45 197.96 350.68 C 188.73 349.61 179.13 350.34 170.41 346.55 C 165.74 344.33 160.92 347.33 156.17 347.07 C 152.94 345.49 150.07 343.29 146.89 341.61 C 146.77 343.34 146.67 345.09 146.57 346.83 C 144.02 344.13 141.52 341.39 139.00 338.66 C 136.76 341.62 134.66 344.68 132.64 347.80 C 125.26 343.41 119.49 336.95 112.55 332.01 C 112.25 333.36 111.95 334.71 111.65 336.06 C 109.23 331.11 107.84 325.73 105.27 320.84 C 105.41 326.57 105.91 332.29 105.69 338.03 C 99.47 331.11 95.79 322.50 90.82 314.76 C 91.80 319.96 94.18 324.86 94.17 330.24 C 84.23 321.99 84.99 307.24 77.78 297.18 C 74.78 294.14 71.32 291.38 69.56 287.35 C 62.63 272.93 58.53 256.99 58.31 240.96 C 59.38 219.20 60.98 197.47 62.46 175.74 C 63.58 177.08 64.67 178.44 65.75 179.81 C 66.38 175.66 66.65 171.31 68.67 167.53 C 69.96 172.06 70.22 176.80 71.54 181.32 C 72.80 174.50 73.18 167.52 74.97 160.79 C 75.13 174.00 73.42 187.77 77.31 200.55 C 78.95 186.67 79.29 172.61 81.67 158.81 C 83.54 205.68 84.34 254.48 103.77 298.07 C 101.70 267.31 95.73 236.75 96.38 205.84 C 102.62 231.27 110.07 257.67 127.03 278.23 C 119.85 263.45 113.13 248.39 108.59 232.55 C 107.02 226.55 103.43 220.00 106.98 214.01 C 114.38 219.17 121.11 225.40 129.30 229.34 C 123.33 220.42 116.25 212.20 111.63 202.41 C 114.31 195.88 116.74 189.25 118.67 182.46 C 120.50 176.77 122.06 170.99 123.55 165.21 C 123.69 165.64 123.98 166.50 124.12 166.93 C 125.34 183.51 127.89 200.11 132.74 216.04 C 130.09 212.28 127.57 208.43 124.84 204.73 C 129.14 222.53 135.35 240.20 144.95 255.88 C 141.05 252.33 137.49 248.43 133.70 244.76 C 139.39 258.58 146.92 271.66 154.83 284.32 L 154.87 285.01 C 150.89 284.68 146.92 284.33 142.95 283.96 C 142.65 285.04 142.34 286.14 142.04 287.23 C 146.39 287.90 150.74 287.13 155.01 286.31 C 155.95 297.71 155.55 309.17 155.83 320.60 C 152.17 322.03 147.12 323.26 146.59 327.94 C 147.71 334.10 156.00 332.73 159.13 329.03 C 161.93 325.19 166.93 324.90 171.14 323.70 C 166.86 322.45 162.60 321.16 158.35 319.82 C 157.63 309.11 158.05 298.37 159.25 287.72 C 160.30 290.64 161.56 293.48 162.74 296.36 C 167.61 297.45 172.54 298.25 177.48 299.01 C 177.78 310.65 171.65 322.13 174.93 333.64 C 174.77 321.82 180.86 311.22 181.92 299.55 C 186.38 299.94 190.84 300.41 195.23 301.31 C 191.93 301.54 188.62 301.56 185.31 301.68 C 189.20 304.91 194.63 303.94 198.40 301.08 L 198.59 301.09 C 205.03 302.04 211.48 302.91 217.97 303.48 C 217.60 312.78 218.54 322.07 219.59 331.30 C 220.98 322.21 219.79 312.98 220.90 303.86 C 227.39 303.47 233.90 302.97 240.31 301.77 C 242.13 307.62 243.97 313.56 244.17 319.74 C 244.54 322.10 244.02 325.22 246.33 326.71 C 250.48 326.91 251.66 322.16 253.40 319.30 C 256.53 314.07 257.25 307.98 258.07 302.07 C 259.20 293.98 264.14 287.19 266.30 279.43 C 262.86 281.25 261.88 285.14 260.28 288.36 C 258.86 288.54 257.45 288.73 256.04 288.91 C 268.19 269.43 279.75 249.47 289.32 228.60 C 285.65 231.58 282.32 234.94 278.85 238.13 C 287.95 220.88 295.47 202.64 300.11 183.68 C 297.23 187.34 294.73 191.28 292.07 195.10 C 296.35 177.81 300.92 160.35 301.68 142.49 C 301.96 141.65 302.51 139.98 302.79 139.14 C 305.37 145.95 307.29 152.99 309.37 159.97 C 310.57 164.11 312.12 168.14 313.24 172.31 C 309.23 189.61 300.84 205.44 292.77 221.11 C 298.09 217.21 302.21 211.99 307.30 207.82 C 308.02 214.60 311.01 221.63 308.27 228.34 C 299.08 255.22 289.69 282.60 272.98 305.90 C 290.43 289.45 301.58 267.61 310.90 245.83 C 310.42 255.35 307.91 264.60 307.19 274.09 C 318.22 252.70 325.32 229.47 331.34 206.23 C 333.62 195.80 336.55 185.39 336.98 174.66 C 332.36 185.31 329.59 196.72 324.29 207.09 C 329.35 181.25 330.87 154.93 332.02 128.68 Z" />
<path fill="#00464f" opacity="1.00" d=" M 169.62 157.60 C 171.49 158.13 173.37 158.64 175.25 159.15 C 174.58 159.64 173.92 160.13 173.25 160.62 C 173.79 160.94 174.87 161.56 175.41 161.88 C 173.93 162.56 172.45 163.23 170.97 163.92 C 172.21 163.97 173.45 164.03 174.69 164.09 C 176.17 162.79 177.67 161.51 179.20 160.28 C 179.15 163.04 178.89 165.81 178.10 168.46 C 178.00 168.92 177.78 169.82 177.67 170.28 C 180.56 174.30 185.37 175.30 190.03 175.50 C 190.01 175.93 189.98 176.77 189.96 177.19 C 189.28 179.23 188.20 181.11 187.23 183.02 C 188.17 182.69 189.12 182.36 190.06 182.04 C 189.77 183.67 189.47 185.30 189.19 186.93 C 190.11 186.40 191.03 185.87 191.95 185.34 C 192.16 186.48 192.38 187.64 192.60 188.79 C 193.32 188.26 194.05 187.73 194.78 187.21 C 195.68 189.79 196.80 192.42 199.23 193.92 C 199.14 192.06 199.01 190.20 198.92 188.35 C 200.78 191.07 202.40 193.94 203.90 196.87 C 201.59 196.95 199.76 198.29 198.89 200.41 C 193.28 199.95 188.46 196.48 184.37 192.86 C 183.99 193.12 183.61 193.39 183.24 193.66 C 177.59 189.02 170.88 185.56 166.11 179.92 C 163.34 175.37 162.50 168.64 166.01 164.27 C 166.33 166.66 166.14 169.06 165.42 171.36 C 166.70 171.32 167.98 171.29 169.26 171.27 C 168.52 167.57 167.71 163.87 167.67 160.07 C 168.26 160.27 169.43 160.65 170.02 160.84 C 169.92 160.03 169.72 158.41 169.62 157.60 Z" />
</g>
<g id="#4dd0afff">
<path fill="#4dd0af" opacity="1.00" d=" M 98.29 147.11 C 102.35 150.66 107.69 152.73 111.15 156.89 C 114.21 165.23 114.34 174.53 118.67 182.46 C 116.74 189.25 114.31 195.88 111.63 202.41 C 104.57 189.65 98.92 176.05 95.01 162.01 C 100.02 168.84 105.57 175.37 112.46 180.39 C 106.38 169.91 102.04 158.61 98.29 147.11 Z" />
<path fill="#4dd0af" opacity="1.00" d=" M 309.37 159.97 C 313.19 157.45 315.67 153.26 320.01 151.48 C 318.60 158.69 315.26 165.29 313.24 172.31 C 312.12 168.14 310.57 164.11 309.37 159.97 Z" />
<path fill="#4dd0af" opacity="1.00" d=" M 275.76 178.71 C 280.64 169.58 286.85 160.38 296.33 155.56 C 289.36 172.78 279.55 188.88 266.84 202.47 C 274.48 201.01 280.02 195.43 285.49 190.37 C 282.11 205.28 275.88 219.33 269.68 233.24 C 263.80 230.61 256.98 229.85 250.80 231.84 C 248.14 233.40 246.42 236.15 243.90 237.92 C 239.98 241.10 234.09 242.27 232.16 247.46 C 236.47 245.29 239.88 240.98 244.99 240.69 C 251.71 240.10 258.46 240.76 265.16 241.31 C 261.79 247.12 257.94 252.63 254.11 258.15 C 259.65 255.64 264.70 252.25 269.72 248.84 C 263.26 264.81 256.47 280.65 249.26 296.29 C 248.39 298.28 246.71 299.70 245.12 301.10 C 243.24 297.01 244.36 290.45 239.16 288.72 C 236.85 287.60 234.12 290.42 235.09 292.73 C 236.82 295.74 239.27 298.38 240.31 301.77 C 233.90 302.97 227.39 303.47 220.90 303.86 C 221.40 298.58 221.90 293.31 222.51 288.04 C 221.30 286.82 220.09 285.61 218.88 284.40 C 227.06 282.50 235.50 281.98 243.87 282.55 C 238.39 277.94 230.42 279.54 223.79 279.50 C 216.07 280.83 206.58 276.97 200.52 283.54 C 197.45 273.67 186.22 276.25 178.57 277.78 C 179.64 284.89 178.56 291.98 177.48 299.01 C 172.54 298.25 167.61 297.45 162.74 296.36 C 161.56 293.48 160.30 290.64 159.25 287.72 C 159.26 287.33 159.28 286.54 159.29 286.15 C 162.43 285.78 165.58 285.49 168.71 285.03 C 165.92 284.51 163.10 284.15 160.29 283.78 C 160.24 281.24 160.15 278.71 160.04 276.18 C 158.58 276.14 157.11 276.12 155.65 276.09 C 154.84 272.03 153.36 268.16 152.06 264.25 C 154.41 266.07 156.72 267.95 159.11 269.73 C 161.15 270.31 163.28 270.47 165.39 270.59 C 164.32 267.10 163.88 263.44 164.67 259.84 C 166.23 260.56 167.78 261.30 169.34 262.02 C 169.32 260.15 169.30 258.28 169.27 256.41 C 167.74 256.57 166.20 256.73 164.68 256.90 C 164.42 254.48 164.23 252.06 164.09 249.64 C 166.65 250.32 169.06 251.42 171.34 252.78 C 171.44 251.70 171.54 250.63 171.64 249.56 C 167.59 247.85 163.44 246.39 159.21 245.22 C 160.19 250.61 159.21 256.06 159.72 261.48 C 154.82 255.43 151.81 248.18 148.93 241.03 C 154.61 240.65 160.32 240.20 166.01 240.67 C 171.13 240.93 174.48 245.38 178.82 247.53 C 177.28 242.99 172.32 241.66 168.76 239.18 C 165.59 237.24 163.51 234.00 160.50 231.89 C 155.75 230.19 150.48 230.43 145.62 231.50 C 141.95 224.83 139.85 217.44 137.98 210.11 C 142.84 215.50 148.08 221.28 155.59 222.69 C 143.04 208.33 132.95 191.83 126.70 173.76 C 127.27 173.66 128.43 173.45 129.01 173.34 C 130.86 175.88 132.69 178.44 134.48 181.02 C 138.24 179.56 141.77 177.56 144.92 175.04 C 145.06 175.43 145.35 176.22 145.49 176.61 C 144.96 177.62 144.44 178.63 143.91 179.64 C 145.23 181.21 146.54 182.79 147.83 184.39 C 146.49 185.68 145.14 186.97 143.83 188.29 C 145.03 187.77 146.23 187.26 147.40 186.68 C 148.61 187.29 149.82 187.90 151.03 188.51 C 150.31 189.06 149.59 189.60 148.86 190.14 C 149.43 193.11 150.27 196.06 150.40 199.10 C 149.43 210.44 157.48 219.69 163.88 228.14 C 171.88 234.28 180.31 240.06 189.39 244.56 C 195.17 247.52 203.67 247.73 205.27 255.43 C 200.91 253.89 196.33 253.16 191.72 253.04 C 192.34 258.68 192.46 264.37 192.23 270.05 C 193.79 270.08 195.36 270.11 196.93 270.15 C 196.98 267.49 197.10 264.84 197.32 262.19 C 199.10 264.66 200.59 267.33 202.01 270.03 C 203.41 270.03 204.81 270.04 206.22 270.05 C 204.92 267.39 203.62 264.73 202.25 262.12 C 203.11 261.35 203.97 260.59 204.83 259.83 C 205.87 255.56 205.94 249.27 211.29 248.20 C 224.29 244.25 235.44 236.17 246.16 228.14 C 252.63 219.74 260.82 210.47 259.80 199.13 C 260.12 194.78 263.02 189.26 257.47 187.11 C 258.61 186.76 259.74 186.40 260.89 186.05 C 258.99 183.86 256.53 181.74 256.44 178.61 C 259.37 180.64 262.01 183.06 264.69 185.41 C 264.34 183.98 263.99 182.56 263.64 181.14 C 267.24 183.85 273.71 184.50 275.45 179.35 L 275.76 178.71 M 237.45 249.67 C 237.55 251.18 237.65 252.69 237.76 254.21 C 239.11 252.89 240.45 251.57 241.84 250.30 C 241.48 256.89 242.22 263.53 241.11 270.07 C 243.18 270.10 245.25 270.10 247.33 270.10 C 245.84 263.09 247.77 256.04 246.84 248.95 C 248.19 249.29 249.54 249.65 250.90 250.00 C 251.05 248.45 251.20 246.89 251.34 245.35 C 246.68 246.70 242.14 248.40 237.45 249.67 M 177.21 251.20 C 172.01 253.63 171.85 261.27 174.25 265.86 C 175.91 271.78 185.05 271.87 187.46 266.49 C 192.56 259.92 185.26 248.89 177.21 251.20 M 224.32 255.28 C 223.42 260.76 230.05 262.47 233.41 265.27 C 232.36 266.61 231.34 268.03 229.91 268.99 C 227.53 268.47 226.61 265.78 224.47 264.77 C 224.36 266.44 224.28 268.12 224.22 269.80 C 228.08 270.17 233.04 271.34 235.69 267.60 C 238.07 265.23 235.99 262.06 234.88 259.63 C 231.47 258.98 225.67 255.57 230.83 252.69 C 231.99 253.74 233.16 254.80 234.34 255.85 C 234.70 254.12 235.02 252.39 235.33 250.66 C 231.39 250.74 225.86 250.78 224.32 255.28 M 208.56 253.78 C 208.57 259.20 209.61 264.65 208.95 270.00 C 213.20 270.05 217.45 270.16 221.69 269.89 C 221.67 268.46 221.65 267.03 221.62 265.61 C 219.18 266.97 216.94 269.41 213.89 268.50 C 213.99 266.51 214.08 264.52 214.17 262.54 C 215.54 262.87 216.92 263.20 218.29 263.53 C 218.48 262.00 218.66 260.47 218.84 258.95 C 217.23 259.34 215.63 259.76 214.03 260.19 C 214.09 258.54 214.15 256.90 214.22 255.26 C 214.85 255.17 216.12 255.01 216.75 254.93 C 218.32 255.52 219.90 256.10 221.49 256.64 C 221.22 249.58 212.95 254.26 208.56 253.78 Z" />
<path fill="#4dd0af" opacity="1.00" d=" M 179.42 252.90 C 182.74 253.03 183.08 256.38 183.76 258.94 C 181.92 258.41 180.09 257.88 178.25 257.38 C 178.63 255.88 179.02 254.39 179.42 252.90 Z" />
<path fill="#4dd0af" opacity="1.00" d=" M 197.14 254.83 C 201.32 255.53 201.83 260.86 197.21 261.28 C 197.03 259.13 197.00 256.98 197.14 254.83 Z" />
<path fill="#4dd0af" opacity="1.00" d=" M 177.86 262.34 C 179.69 262.85 181.55 263.21 183.44 263.42 C 183.51 265.73 182.85 267.84 181.02 269.33 C 178.73 267.68 178.22 264.95 177.86 262.34 Z" />
<path fill="#4dd0af" opacity="1.00" d=" M 185.63 279.34 C 189.26 279.66 194.14 279.05 196.04 282.99 C 199.94 288.59 198.83 295.88 195.23 301.31 C 190.84 300.41 186.38 299.94 181.92 299.55 C 182.72 292.74 183.84 285.97 185.63 279.34 Z" />
<path fill="#4dd0af" opacity="1.00" d=" M 201.30 285.36 C 206.05 289.94 212.77 287.93 217.59 284.63 C 215.74 290.83 219.37 297.11 217.97 303.48 C 211.48 302.91 205.03 302.04 198.59 301.09 C 201.68 296.43 202.36 290.77 201.30 285.36 Z" />
</g>
<g id="#ffffffff">
<path fill="#ffffff" opacity="1.00" d=" M 234.89 176.80 C 235.71 177.60 236.51 178.42 237.29 179.27 C 236.60 179.70 235.23 180.58 234.54 181.01 C 234.56 182.72 234.53 184.44 234.40 186.15 C 232.12 183.39 233.90 179.70 234.89 176.80 Z" />
</g>
<g id="#45a2daff">
</g>
</svg>
